<svg width="18" height="14" viewBox="0 0 18 14" fill="none" xmlns="http://www.w3.org/2000/svg">
<path fill-rule="evenodd" clip-rule="evenodd" d="M17.2656 1.40625C17.3949 1.40625 17.5 1.30123 17.5 1.17187V0.234374C17.5 0.105018 17.3949 0 17.2656 0H0.234374C0.105018 0 0 0.105018 0 0.234374V1.17187C0 1.30123 0.105018 1.40625 0.234374 1.40625H17.2656ZM17.2656 7.65623C17.3949 7.65623 17.5 7.55121 17.5 7.42186V6.48436C17.5 6.355 17.3949 6.24999 17.2656 6.24999H0.234374C0.105018 6.24999 0 6.355 0 6.48436V7.42186C0 7.55121 0.105018 7.65623 0.234374 7.65623H17.2656ZM17.2656 13.9062C17.3949 13.9062 17.5 13.8012 17.5 13.6718V12.7343C17.5 12.605 17.3949 12.5 17.2656 12.5H0.234374C0.105018 12.5 0 12.605 0 12.7343V13.6718C0 13.8012 0.105018 13.9062 0.234374 13.9062H17.2656Z" fill="white"/>
</svg>