<svg width="13" height="13" viewBox="0 0 13 13" fill="none" xmlns="http://www.w3.org/2000/svg">
<path fill-rule="evenodd" clip-rule="evenodd" d="M7.57579 6.24999L11.582 2.24377L12.4082 1.41759C12.53 1.29571 12.53 1.09765 12.4082 0.975807L11.5242 0.0917909C11.4023 -0.0300502 11.2043 -0.0300502 11.0824 0.0917909L6.24999 4.9242L1.41759 0.0914095C1.29571 -0.0304698 1.09765 -0.0304698 0.975807 0.0914095L0.0914095 0.975387C-0.0304698 1.09727 -0.0304698 1.29533 0.0914095 1.4172L4.9242 6.24999L0.0914095 11.0824C-0.0304698 11.2043 -0.0304698 11.4023 0.0914095 11.5242L0.975387 12.4082C1.09727 12.53 1.29533 12.53 1.4172 12.4082L6.24999 7.57579L10.2562 11.582L11.0824 12.4082C11.2043 12.53 11.4023 12.53 11.5242 12.4082L12.4082 11.5242C12.53 11.4023 12.53 11.2043 12.4082 11.0824L7.57579 6.24999Z" fill="white"/>
</svg>